<?xml version="1.0" encoding="UTF-8" standalone="no"?>
<svg
   width="183.95000000000002"
   height="42.70903288991956"
   viewBox="0 0 349.99999999999994 81.26209030427749"
   class="css-1j8o68f"
   version="1.1"
   id="svg200"
   sodipodi:docname="logo_2.svg"
   inkscape:version="1.2.2 (732a01da63, 2022-12-09)"
   xmlns:inkscape="http://www.inkscape.org/namespaces/inkscape"
   xmlns:sodipodi="http://sodipodi.sourceforge.net/DTD/sodipodi-0.dtd"
   xmlns="http://www.w3.org/2000/svg"
   xmlns:svg="http://www.w3.org/2000/svg">
  <sodipodi:namedview
     id="namedview202"
     pagecolor="#ffffff"
     bordercolor="#000000"
     borderopacity="0.25"
     inkscape:showpageshadow="2"
     inkscape:pageopacity="0.0"
     inkscape:pagecheckerboard="0"
     inkscape:deskcolor="#d1d1d1"
     showgrid="false"
     inkscape:zoom="6.86056"
     inkscape:cx="87.164896"
     inkscape:cy="21.426822"
     inkscape:window-width="1920"
     inkscape:window-height="1017"
     inkscape:window-x="-8"
     inkscape:window-y="-8"
     inkscape:window-maximized="1"
     inkscape:current-layer="svg200" />
  <defs
     id="SvgjsDefs1135" />
  <g
     id="SvgjsG1136"
     featurekey="symbolFeature-0"
     transform="matrix(1.417004048582996,0,0,1.417004048582996,129,0)"
     fill="#fff">
    <path
       fill="#fff"
       d="M300.414214,90 L312.707107,102.292893 C313.097631,102.683418 313.097631,103.316582 312.707107,103.707107 C312.316582,104.097631 311.683418,104.097631 311.292893,103.707107 L298.292893,90.7071068 C297.902369,90.3165825 297.902369,89.6834175 298.292893,89.2928932 L311.292893,76.2928932 C311.683418,75.9023689 312.316582,75.9023689 312.707107,76.2928932 C313.097631,76.6834175 313.097631,77.3165825 312.707107,77.7071068 L300.414214,90 Z M330,94 C327.790861,94 326,92.209139 326,90 C326,87.790861 327.790861,86 330,86 C332.209139,86 334,87.790861 334,90 C334,92.209139 332.209139,94 330,94 Z M330,92 C331.104569,92 332,91.1045695 332,90 C332,88.8954305 331.104569,88 330,88 C328.895431,88 328,88.8954305 328,90 C328,91.1045695 328.895431,92 330,92 Z M342,94 C339.790861,94 338,92.209139 338,90 C338,87.790861 339.790861,86 342,86 C344.209139,86 346,87.790861 346,90 C346,92.209139 344.209139,94 342,94 Z M342,92 C343.104569,92 344,91.1045695 344,90 C344,88.8954305 343.104569,88 342,88 C340.895431,88 340,88.8954305 340,90 C340,91.1045695 340.895431,92 342,92 Z M318,94 C315.790861,94 314,92.209139 314,90 C314,87.790861 315.790861,86 318,86 C320.209139,86 322,87.790861 322,90 C322,92.209139 320.209139,94 318,94 Z M318,92 C319.104569,92 320,91.1045695 320,90 C320,88.8954305 319.104569,88 318,88 C316.895431,88 316,88.8954305 316,90 C316,91.1045695 316.895431,92 318,92 Z M360.585786,90 L348.292893,77.7071068 C347.902369,77.3165825 347.902369,76.6834175 348.292893,76.2928932 C348.683418,75.9023689 349.316582,75.9023689 349.707107,76.2928932 L362.707107,89.2928932 C363.097631,89.6834175 363.097631,90.3165825 362.707107,90.7071068 L349.707107,103.707107 C349.316582,104.097631 348.683418,104.097631 348.292893,103.707107 C347.902369,103.316582 347.902369,102.683418 348.292893,102.292893 L360.585786,90 Z"
       transform="translate(-298 -76)"
       id="path194" />
  </g>
  <g
     id="SvgjsG1137"
     featurekey="nameFeature-0"
     transform="matrix(0.714451953654315,0,0,0.714451953654315,-2.1433555202857058,52.398230286476)"
     fill="#fff">
    <path
       d="M8.32 40 l-5.32 0 l0 -28.48 l10.2 0 c1.96 0 3.8 0.76 5.2 2.16 c1.36 1.4 2.16 3.2 2.16 5.16 c0 4.04 -3.32 7.28 -7.36 7.28 l-4.88 0 l0 13.88 z M8.32 20.88 l4.88 0 c1.12 0 2 -0.92 2 -2.04 s-0.92 -2.08 -2 -2.08 l-4.88 0 l0 4.12 z M38.967 40.4 c-8.2 0 -14.88 -6.64 -14.88 -14.84 c0 -8.24 6.68 -14.92 14.88 -14.92 c8.24 0 14.92 6.68 14.92 14.92 c0 8.2 -6.68 14.84 -14.92 14.84 z M38.967 15.96 c-5.24 0 -9.52 4.28 -9.52 9.6 c0 5.28 4.28 9.56 9.52 9.56 s9.52 -4.28 9.52 -9.56 c0 -5.32 -4.28 -9.6 -9.52 -9.6 z M78.934 40 l-19.88 0 l0 -28.48 l5.36 0 l0 23.24 l14.52 0 l0 5.24 z M90.541 40 l-5.36 0 l0 -28.48 l5.36 0 l0 28.48 z M122.10800000000002 40 l-5.16 0 l-12.64 -18.68 l0 18.68 l-5.36 0 l0 -28.48 l5.2 0 l12.6 18.64 l0 -18.64 l5.36 0 l0 28.48 z M152.75500000000002 40 l-5.76 0 l-2.92 -7.68 l-9.44 0 l-2.96 7.68 l-5.72 0 l10.96 -28.48 l4.84 0 z M136.715 27.04 l5.28 0 l-2.64 -6.92 z M194.52900000000002 40 l-6.68 0 l-10.6 -14.88 l-4.56 4.32 l0 10.56 l-5.32 0 l0 -28.48 l5.32 0 l0 10.68 l11.36 -10.68 l7.68 0 l-10.44 9.88 z M223.336 40 l-5.76 0 l-2.92 -7.68 l-9.44 0 l-2.96 7.68 l-5.72 0 l10.96 -28.48 l4.84 0 z M207.29600000000002 27.04 l5.28 0 l-2.64 -6.92 z M247.823 40 l-19.88 0 l0 -28.48 l5.36 0 l0 23.24 l14.52 0 l0 5.24 z M277.91 40 l-5.76 0 l-2.92 -7.68 l-9.44 0 l-2.96 7.68 l-5.72 0 l10.96 -28.48 l4.84 0 z M261.87 27.04 l5.28 0 l-2.64 -6.92 z M292.757 40.24 c-0.92 0 -1.88 -0.12 -2.88 -0.32 c-2.96 -0.6 -5.84 -2.04 -8.36 -4.24 l-0.76 -0.68 l3.52 -4 l0.76 0.68 c1.84 1.6 3.88 2.68 5.88 3.08 l0.04 0 c0.6 0.12 1.2 0.2 1.8 0.2 c1 0 1.92 -0.2 2.68 -0.56 c0.96 -0.4 2.08 -1.28 2.08 -2.92 c0 -0.88 -0.44 -1.56 -1.36 -2.12 c-1.12 -0.68 -2.64 -1.04 -3.72 -1.24 c-0.48 -0.08 -4.56 -0.92 -6.44 -1.96 c-1.24 -0.76 -2.2 -1.72 -2.88 -2.84 c-0.68 -1.16 -1 -2.44 -1 -3.84 c0 -1.52 0.48 -3.04 1.4 -4.44 c0.88 -1.16 2.08 -2.12 3.52 -2.8 s3.04 -1.04 4.76 -1.04 c0.68 0 1.4 0.08 2.12 0.16 c2.64 0.48 5.24 1.68 7.52 3.6 l0.76 0.64 l-3.4 4.12 l-0.76 -0.64 c-2.6 -2.12 -4.84 -2.6 -6.28 -2.6 c-0.92 0 -1.76 0.2 -2.48 0.52 c-1.12 0.52 -1.84 1.48 -1.84 2.44 c0 0.88 0.32 1.44 1.08 1.96 s1.92 0.92 3.76 1.32 c0.24 0.04 0.56 0.12 0.88 0.2 c1.68 0.32 3.92 0.8 5.48 1.72 c1.36 0.72 2.4 1.72 3.12 2.88 s1.08 2.52 1.08 3.96 c0 1.8 -0.48 3.4 -1.44 4.76 c-0.84 1.16 -2.08 2.16 -3.72 2.96 c-1.4 0.72 -2.96 1.04 -4.92 1.04 z M330.60400000000004 40 l-5.36 0 l0 -13.8 l-11.56 0 l0 13.8 l-5.36 0 l0 -28.48 l5.36 0 l0 9.44 l11.56 0 l0 -9.44 l5.36 0 l0 28.48 z M360.771 40 l-5.16 0 l-12.64 -18.68 l0 18.68 l-5.36 0 l0 -28.48 l5.2 0 l12.6 18.64 l0 -18.64 l5.36 0 l0 28.48 z M374.938 40 l-5.36 0 l0 -28.48 l5.36 0 l0 28.48 z M410.70500000000004 40 l-6.68 0 l-10.6 -14.88 l-4.56 4.32 l0 10.56 l-5.32 0 l0 -28.48 l5.32 0 l0 10.68 l11.36 -10.68 l7.68 0 l-10.44 9.88 z M426.07200000000006 40.4 c-8.2 0 -14.88 -6.64 -14.88 -14.84 c0 -8.24 6.68 -14.92 14.88 -14.92 c8.24 0 14.92 6.68 14.92 14.92 c0 8.2 -6.68 14.84 -14.92 14.84 z M426.07200000000006 15.96 c-5.24 0 -9.52 4.28 -9.52 9.6 c0 5.28 4.28 9.56 9.52 9.56 s9.52 -4.28 9.52 -9.56 c0 -5.32 -4.28 -9.6 -9.52 -9.6 z M457.71900000000005 40 l-4.84 0 l-11 -28.48 l5.76 0 l7.64 19.88 l7.68 -19.88 l5.72 0 z M492.8860000000001 40 l-5.76 0 l-2.92 -7.68 l-9.44 0 l-2.96 7.68 l-5.72 0 l10.96 -28.48 l4.84 0 z M476.84600000000006 27.04 l5.28 0 l-2.64 -6.92 z"
       id="path197" />
  </g>
</svg>
